<?xml version="1.0" standalone="no"?>
<!DOCTYPE svg PUBLIC "-//W3C//DTD SVG 20010904//EN"
 "http://www.w3.org/TR/2001/REC-SVG-20010904/DTD/svg10.dtd">
<svg version="1.0" xmlns="http://www.w3.org/2000/svg"
 width="2500.000000pt" height="2500.000000pt" viewBox="0 0 2500.000000 2500.000000"
 preserveAspectRatio="xMidYMid meet">
<metadata>
Created by potrace 1.14, written by Peter Selinger 2001-2017
</metadata>
<g transform="translate(0.000000,2500.000000) scale(0.100000,-0.100000)"
fill="#000000" stroke="none">
<path d="M4459 24716 c-2 -2 -49 -6 -104 -10 -102 -7 -149 -11 -220 -21 -22
-2 -62 -7 -90 -10 -27 -3 -61 -8 -75 -10 -14 -3 -40 -7 -59 -10 -19 -3 -88
-17 -155 -31 -67 -14 -132 -27 -146 -30 -45 -9 -163 -42 -265 -73 -55 -18
-108 -33 -118 -36 -27 -6 -178 -62 -291 -107 -327 -132 -657 -313 -961 -528
-72 -51 -132 -95 -135 -99 -3 -3 -23 -19 -45 -36 -170 -125 -476 -417 -650
-620 -27 -32 -55 -63 -60 -69 -6 -6 -42 -51 -80 -101 -351 -451 -606 -928
-773 -1445 -61 -189 -113 -376 -125 -455 -3 -16 -12 -64 -20 -105 -26 -130
-39 -214 -56 -365 -6 -49 -14 -110 -18 -135 -4 -25 -8 -4569 -10 -10098 l-2
-10052 10322 3 c5677 2 10336 6 10352 9 17 3 62 8 100 12 77 7 129 13 190 22
79 11 101 15 150 24 28 5 66 12 85 15 161 26 636 161 755 214 11 5 47 19 80
32 512 193 1086 562 1509 969 170 164 215 212 384 410 7 8 44 56 82 105 38 50
74 95 78 100 57 70 246 366 330 517 264 473 470 1092 536 1608 22 173 24 191
33 305 10 129 10 15642 0 15755 -4 47 -9 110 -12 140 -3 30 -8 75 -11 100 -8
54 -10 72 -18 133 -4 26 -11 71 -17 100 -6 29 -12 63 -15 77 -5 30 -26 131
-30 145 -2 6 -5 19 -7 30 -163 704 -528 1428 -987 1959 -521 603 -1111 1032
-1820 1322 -140 57 -420 154 -490 169 -8 1 -58 14 -110 28 -139 37 -377 85
-515 102 -27 4 -61 8 -75 10 -14 2 -54 6 -90 10 -36 3 -85 9 -110 13 -47 6
-16213 15 -16221 8z"/>
</g>
</svg>
